<svg width="32" height="32" viewBox="0 0 32 32" fill="none" xmlns="http://www.w3.org/2000/svg">
  <!-- Background circle -->
  <circle cx="16" cy="16" r="15" fill="url(#gradient)" stroke="#1E40AF" stroke-width="2"/>
  
  <!-- Eye shape (peek theme) -->
  <ellipse cx="16" cy="16" rx="12" ry="8" fill="white" opacity="0.9"/>
  <ellipse cx="16" cy="16" rx="8" ry="6" fill="#0369A1"/>
  <circle cx="16" cy="16" r="4" fill="#0EA5E9"/>
  <circle cx="17" cy="15" r="1.5" fill="white"/>
  
  <!-- Weather elements -->
  <!-- Cloud -->
  <path d="M8 12c0-1.5 1-2.5 2.5-2.5 0.5-1 1.5-1.5 2.5-1.5s2 0.5 2.5 1.5c1.5 0 2.5 1 2.5 2.5 0 0.8-0.4 1.5-1 2H9c-0.6-0.5-1-1.2-1-2z" fill="white" opacity="0.8"/>
  
  <!-- Sun rays -->
  <g stroke="#FCD34D" stroke-width="1.5" stroke-linecap="round">
    <line x1="16" y1="4" x2="16" y2="6"/>
    <line x1="16" y1="26" x2="16" y2="28"/>
    <line x1="28" y1="16" x2="26" y2="16"/>
    <line x1="6" y1="16" x2="4" y2="16"/>
    <line x1="25.5" y1="6.5" x2="24" y2="8"/>
    <line x1="8" y1="24" x2="6.5" y2="25.5"/>
    <line x1="25.5" y1="25.5" x2="24" y2="24"/>
    <line x1="8" y1="8" x2="6.5" y2="6.5"/>
  </g>
  
  <defs>
    <linearGradient id="gradient" x1="0%" y1="0%" x2="100%" y2="100%">
      <stop offset="0%" style="stop-color:#0EA5E9;stop-opacity:1" />
      <stop offset="100%" style="stop-color:#1E40AF;stop-opacity:1" />
    </linearGradient>
  </defs>
</svg>